<?xml version="1.0" encoding="utf-8"?>
<!-- Generator: Adobe Illustrator 16.0.0, SVG Export Plug-In . SVG Version: 6.00 Build 0)  -->
<!DOCTYPE svg PUBLIC "-//W3C//DTD SVG 1.1//EN" "http://www.w3.org/Graphics/SVG/1.1/DTD/svg11.dtd">
<svg version="1.1" id="레이어_1" xmlns="http://www.w3.org/2000/svg" xmlns:xlink="http://www.w3.org/1999/xlink" x="0px"
	 y="0px" width="542px" height="579px" viewBox="0 0 542 579" enable-background="new 0 0 542 579" xml:space="preserve">
<path fill-rule="evenodd" clip-rule="evenodd" stroke="#000000" stroke-width="2" stroke-miterlimit="10" d="M62.575,259.91
	c-11.508-1.813-17.841-7.47-19.167-16.991c-1.151-8.134,3.551-16.471,11.217-19.856c7.819-3.48,16.886-1.439,22.405,5.075
	c3.173,3.707,4.665,8.042,4.585,12.897c-0.117,4.824-1.968,9.047-5.21,12.723c15.217,21.775,30.35,43.474,45.6,65.284
	c6.934-5.074,14.235-9.267,22.225-12.6c1.838-35.479,3.676-70.968,5.532-106.62c-7.046-2.517-11.761-7.183-13.417-14.484
	c-1.2-5.351-0.181-10.379,2.931-14.934c6.163-9.001,18.702-10.905,27.437-4.396c7.511,5.601,12.131,19.743,0.191,30.664
	c0.209,0.705,0.439,1.43,0.705,2.169c12.392,33.228,24.826,66.454,37.174,99.686c0.625,1.694,1.503,2.486,3.242,2.869
	c7.28,1.603,14.229,4.161,20.953,7.393c0.779,0.368,1.565,0.705,2.599,1.175c11.122-57.264,22.201-114.39,33.319-171.592
	c-5.397-2.977-9.14-7.204-10.827-13.029c-1.274-4.371-1.138-8.761,0.401-13.065c3.089-8.583,11.443-14.193,20.6-13.867
	c9.051,0.322,17.025,6.642,19.451,15.429c2.646,9.65-1.152,18.187-11.066,24.711c11.121,57.024,22.301,114.119,33.459,171.414
	c0.756-0.307,1.33-0.47,1.85-0.746c6.422-3.149,13.053-5.682,19.988-7.367c1.557-0.393,2.318-1.169,2.869-2.67
	c8.494-22.699,17.051-45.378,25.578-68.098c4.029-10.64,8.033-21.265,12.031-31.92c0.209-0.587,0.424-1.184,0.713-1.986
	c-6.129-4.83-9.105-11.079-7.941-19.023c0.805-5.254,3.508-9.425,7.82-12.524c8.883-6.34,21.305-3.798,27.273,5.325
	c5.018,7.74,4.68,22.479-10.238,28.79c1.826,35.203,3.695,70.472,5.537,105.813c8.104,3.263,15.67,7.321,22.928,12.519
	c14.986-21.453,29.906-42.82,44.904-64.273c-3.693-4.299-5.58-9.175-5.117-14.837c0.334-4.201,1.926-7.949,4.758-11.13
	c5.682-6.388,14.846-8.255,22.518-4.62c7.537,3.563,12.07,11.87,10.846,19.845c-1.496,9.608-7.838,15.229-19.141,16.827
	c-0.48,2.62-1.012,5.291-1.512,7.991c-3.592,19.814-7.174,39.649-10.768,59.459c-2.543,14.147-5.146,28.29-7.652,42.432
	c-0.219,1.175-0.094,2.527,0.234,3.702c10.189,36.458,0.762,74.179-25.672,101.294c-15.713,16.123-34.811,26.073-57.057,29.688
	c-42.572,6.888-83.648-12.218-106.049-49.187c-0.34-0.588-0.754-1.133-1.273-1.909c-0.545,0.847-0.99,1.491-1.393,2.119
	c-15.875,25.649-38.411,42.319-68.005,48.165c-35.836,7.066-67.385-2.364-93.75-27.732c-15.932-15.332-25.512-34.239-29.354-55.968
	c-2.655-14.994-1.938-29.897,2.034-44.627c0.531-1.966,0.669-3.773,0.266-5.806c-5.238-26.41-10.405-52.857-15.577-79.263
	c-1.799-9.226-3.594-18.457-5.406-27.692C63.001,261.723,62.797,260.859,62.575,259.91z M440.395,379.395
	c-0.055,0.464-0.135,0.612-0.088,0.756c0.057,0.408,0.152,0.791,0.242,1.164c3.379,12.351,3.602,24.798,1.283,37.337
	c-6.473,34.604-33.58,60.25-72.145,61.986c-6.385,0.316-12.813,0-19.189-0.449c-10.256-0.752-19.779-3.988-28.377-9.712
	c-13.078-8.678-22.74-20.544-30.744-33.746c-6.324-10.451-11.891-21.382-17.828-32.089c-7.232-13.076-14.459-26.126-21.814-39.123
	c-2.073-3.636-4.394-7.139-6.798-10.549c-10.257-14.454-23.843-24.001-41.269-27.799c-2.815-0.599-5.655-1.323-8.692-1.201
	c-3.235,7.281-6.459,14.449-9.663,21.653c0.378,0.158,0.531,0.275,0.662,0.275c1.033,0.139,2.054,0.225,3.076,0.343
	c7.832,0.643,15.148,3.018,21.966,6.923c8.71,4.962,15.46,11.956,20.476,20.58c14.983,25.844,29.946,51.704,44.833,77.558
	c24.139,41.948,75.129,61.206,121.043,45.634c49.379-16.752,78.193-67.816,67.021-118.785c-0.506-2.339-1.213-4.691-1.857-7.148
	C454.971,375.188,447.707,377.296,440.395,379.395z M183.866,349.471c-2.337,0.22-4.931,0.348-7.522,0.689
	c-23.766,3.318-42.785,23.031-44.719,46.951c-1.646,20.299,5.968,36.729,22.666,48.45c12.07,8.497,25.63,11.203,40.155,8.078
	c7.924-1.757,14.938-5.53,21.336-10.451c12.965-9.981,22.245-22.97,30.199-37.042c0.508-0.933,0.334-1.613-0.141-2.393
	c-5.835-9.952-11.322-20.147-17.558-29.843C218.021,358.007,203.018,350.16,183.866,349.471z M365.572,454.891
	c5.098-0.118,10.123-0.562,15.078-1.727c15.334-3.573,26.482-12.268,32.439-27.069c3.934-9.787,5.225-20.065,3.816-30.48
	c-2.512-18.237-11.988-32.093-28.477-40.271c-18.699-9.235-36.832-7.986-53.49,5.314c-5.055,4.049-9.223,8.915-12.582,14.413
	c-5.643,9.225-11.1,18.563-16.686,27.835c-0.574,0.944-0.582,1.659-0.025,2.599c4.689,7.965,9.117,16.094,14.043,23.895
	C330.262,446.262,345.746,454.533,365.572,454.891z M86.366,373.171c-13.642,41.789,3.508,99.287,57.098,122.64
	c52,22.647,107.64-2.108,129.841-44.597c-3.977-6.877-7.998-13.8-12.179-21.014c-0.613,1.021-1.034,1.684-1.386,2.343
	c-5.871,10.794-13.287,20.412-22.018,28.989c-9.624,9.404-20.871,15.833-34.271,18.013c-9.723,1.563-19.523,1.741-29.328,0.714
	c-12.886-1.343-24.745-5.61-35.471-12.916c-27.233-18.564-37.78-51.79-31.593-81.552c0.415-1.976,0.915-3.94,1.427-6.096
	C101.001,377.475,93.69,375.335,86.366,373.171z M275.205,140.65c0,87.325,0,174.425,0,261.546c0.742-0.547,1.068-1.148,1.338-1.788
	c12.699-29.167,25.381-58.366,38.117-87.528c0.607-1.368,0.699-2.635,0.426-4.115c-3.104-15.71-6.16-31.45-9.246-47.18
	c-3.875-19.845-7.752-39.671-11.625-59.516c-3.686-18.9-7.342-37.816-11.061-56.712c-0.379-2.042-0.957-4.063-1.443-6.035
	C279.338,139.797,277.24,140.216,275.205,140.65z M266.489,139.22c-0.112,0.404-0.247,0.776-0.316,1.134
	c-1.095,5.514-2.177,11.007-3.233,16.506c-4.815,24.793-9.609,49.611-14.434,74.414c-5.029,25.956-10.083,51.938-15.156,77.885
	c-0.243,1.256-0.104,2.267,0.414,3.39c12.869,27.943,25.69,55.829,38.534,83.735c0.256,0.501,0.551,0.991,1.008,1.787
	c0-86.074,0-171.77,0-257.4C270.867,140.16,268.723,139.71,266.489,139.22z M287.986,378.343c-0.5,1.077-0.813,1.705-1.096,2.369
	c-3.354,7.658-6.662,15.343-10.07,23.006c-0.613,1.373-0.547,2.395,0.166,3.737c4.559,8.128,9.008,16.302,13.504,24.511
	c5.754,10.532,13.021,19.947,21.604,28.361c6.668,6.546,14.244,11.748,23.086,14.929c6.297,2.268,12.855,3.304,19.5,3.723
	c9.57,0.602,19.133,0.465,28.547-1.64c21.98-4.896,38.678-17.007,49.375-36.924c5.041-9.403,7.762-19.486,8.752-30.06
	c0.922-9.712,0.23-19.26-2.387-28.643c-0.174-0.567-0.451-1.114-0.682-1.721c-7.318,2.119-14.426,4.176-21.365,6.218
	c-0.096,0.353-0.156,0.43-0.137,0.485c0.072,0.398,0.141,0.792,0.271,1.169c2.949,11.048,2.498,22.098-0.521,33.038
	c-4.686,16.899-15.482,28.061-32.432,33.043c-4.5,1.328-9.094,1.997-13.771,2.35c-17.006,1.225-31.791-3.769-44.057-15.792
	c-3.816-3.753-6.85-8.057-9.527-12.656c-9.084-15.629-18.119-31.313-27.195-46.956C289.117,380.15,288.678,379.431,287.986,378.343z
	 M110.38,380.222c-0.261,0.43-0.378,0.557-0.414,0.72c-0.112,0.271-0.204,0.562-0.286,0.889
	c-3.916,14.489-3.673,28.933,0.508,43.284c8.822,30.327,34.309,50.928,65.71,53.741c6.617,0.603,13.244,0.435,19.876,0
	c13.701-0.898,25.826-5.621,36.343-14.484c9.545-8.03,17.073-17.752,23.731-28.192c1.57-2.451,2.821-5.091,4.273-7.735
	c-4.156-7.169-8.283-14.296-12.577-21.688c-0.674,1.134-1.118,1.858-1.564,2.625c-3.865,6.724-8.159,13.146-13.053,19.171
	c-5.912,7.275-12.526,13.806-20.458,18.936c-13.165,8.553-27.304,11.141-42.585,7.123c-26.612-7.006-43.933-33.681-39.456-60.803
	c0.378-2.373,0.917-4.753,1.435-7.275C124.645,384.419,117.539,382.346,110.38,380.222z M477.506,258.623
	c-0.248,0.455-0.5,0.762-0.656,1.119c-19.85,41.359-39.689,82.703-59.539,124.073c-0.027,0.058-0.014,0.17,0,0.23
	c0.047,0.046,0.146,0.081,0.33,0.234c14.762-4.273,29.59-8.536,44.566-12.855c6.742-37.26,13.469-74.423,20.211-111.633
	C480.662,259.385,479.193,259.037,477.506,258.623z M129.891,384.28c0.13-0.122,0.273-0.234,0.408-0.383
	c-20.345-41.758-40.693-83.531-61.039-125.315c-1.795,0.455-3.303,0.816-5.011,1.226c7.306,37.312,14.589,74.464,21.875,111.617
	C100.84,375.744,115.366,380.007,129.891,384.28z M151.457,200.38c-0.079,0.698-0.13,1.148-0.186,1.618
	c-0.465,9.251-0.952,18.477-1.43,27.703c-0.753,14.366-1.491,28.732-2.251,43.074c-0.536,10.268-1.031,20.55-1.639,30.787
	c-0.067,1.389,0.273,2.358,1.195,3.385c11.214,12.427,22.405,24.92,33.602,37.372c0.396,0.444,0.868,0.817,1.289,1.226
	c0.11-0.071,0.235-0.128,0.34-0.194c-8.13-48.304-16.271-96.616-24.399-144.971C155.677,200.38,153.639,200.38,151.457,200.38z
	 M364.682,345.223c0.205,0.041,0.377,0.087,0.582,0.158c0.557-0.617,1.182-1.251,1.752-1.872c3.563-4.008,7.119-8.021,10.701-12.05
	c7.162-8.093,14.346-16.23,21.607-24.277c1.096-1.204,1.51-2.42,1.313-4.013c-0.242-2.277-0.18-4.59-0.322-6.872
	c-0.885-16.501-1.764-32.986-2.637-49.478c-0.721-13.647-1.385-27.33-2.102-40.972c-0.08-1.873-0.262-3.732-0.42-5.662
	c-2.189,0.111-4.197,0.209-6.35,0.337C380.748,248.82,372.73,297.012,364.682,345.223z M362.512,345.381
	c0.174,0,0.332,0,0.514,0.006c8.072-48.385,16.125-96.76,24.199-145.115c-2.072-0.734-3.842-1.383-5.783-2.108
	c-0.311,0.725-0.627,1.424-0.896,2.133c-12.434,33.019-24.869,66.051-37.342,99.079c-0.525,1.414-0.525,2.599,0.117,4.008
	c5.494,11.911,10.895,23.843,16.326,35.764C360.617,341.226,361.557,343.298,362.512,345.381z M183.989,345.183
	c0.174,0.04,0.33,0.076,0.495,0.098c0.212-0.399,0.434-0.808,0.613-1.221c6.149-13.683,12.266-27.407,18.441-41.08
	c0.556-1.204,0.421-2.226,0-3.364c-12.496-33.385-24.943-66.75-37.408-100.099c-0.24-0.628-0.569-1.226-0.848-1.818
	c-2.004,0.838-3.799,1.614-5.716,2.42C167.721,248.51,175.854,296.858,183.989,345.183z M351.965,326.144
	c-0.521-0.036-0.762-0.065-1.01-0.046c-14.668,2.088-27.703,7.812-38.695,17.972c-9.922,9.205-16.59,20.774-23.383,32.409
	c4.98,8.598,9.967,17.222,15.082,26.064c0.631-0.99,1.088-1.705,1.539-2.456c4.758-8.005,9.514-16.005,14.303-24.001
	c2.635-4.452,5.717-8.547,9.311-12.264c7.818-8.03,17.068-13.438,28.242-15.296c1.377-0.219,2.764-0.348,4.516-0.597
	C358.488,340.516,355.242,333.373,351.965,326.144z M417.438,378.322c0.199,0.047,0.365,0.117,0.551,0.193
	c19.275-40.17,38.582-80.314,57.916-120.516c-1.58-1.025-2.988-1.961-4.504-2.951c-0.488,0.686-0.908,1.226-1.305,1.813
	c-14.074,20.132-28.137,40.263-42.229,60.389c-0.896,1.262-1.447,2.573-1.676,4.074c-2.697,17.4-5.412,34.805-8.117,52.188
	C417.828,375.111,417.641,376.729,417.438,378.322z M129.625,378.808c0.1-0.062,0.217-0.093,0.334-0.144
	c0.018-0.225,0.061-0.475,0.018-0.699c-3.173-18.997-6.333-38.001-9.606-56.998c-0.199-1.174-0.73-2.415-1.424-3.42
	c-14.079-20.239-28.213-40.421-42.338-60.629c-0.427-0.623-0.927-1.209-1.435-1.879c-1.54,1.042-2.946,2.021-4.394,2.981
	C90.448,298.391,110.022,338.597,129.625,378.808z M132.546,383.402c0.152,0.021,0.326,0.025,0.495,0.066
	c3.859-10.19,10.101-18.549,18.836-24.997c8.736-6.422,18.607-9.782,29.76-10.542c-0.779-0.936-1.243-1.563-1.769-2.114
	c-4.904-5.473-9.841-10.921-14.686-16.444c-1.031-1.186-1.93-1.45-3.426-0.976c-12.707,3.937-23.687,10.66-33.048,20.106
	c-1.322,1.326-1.7,2.604-1.36,4.39c0.842,4.498,1.542,9.026,2.295,13.54C130.608,372.089,131.573,377.734,132.546,383.402z
	 M415.02,381.406c0.217-0.726,0.438-1.215,0.508-1.711c1.496-9.689,2.943-19.375,4.521-29.024c0.217-1.39-0.105-2.216-1.039-3.12
	c-7.045-6.947-15.102-12.457-24.262-16.266c-3.621-1.496-7.393-2.675-10.908-3.9c-3.168,2.767-17.316,18.957-17.932,20.406
	C388.764,349.354,405.084,360.514,415.02,381.406z M274.217,100.086c-10.76,0.006-19.419,8.695-19.388,19.458
	c0.031,10.583,8.654,19.211,19.324,19.324c10.66,0.082,19.523-8.726,19.523-19.401C293.715,108.812,284.953,100.071,274.217,100.086
	z M264.881,385.18c0.088-0.113,0.184-0.199,0.297-0.292c-0.144-0.367-0.253-0.729-0.422-1.072
	c-10.77-23.465-21.565-46.92-32.333-70.385c-0.503-1.071-1.215-1.74-2.259-2.257c-5.736-2.89-11.643-5.263-17.836-7.004
	c-2.17-0.639-4.396-1.17-6.78-1.787c-3.271,7.25-6.446,14.372-9.724,21.739c1.052,0.174,1.882,0.357,2.708,0.47
	c14.451,2.19,27.238,7.894,37.886,18.012c5.766,5.489,10.548,11.779,14.612,18.596c4.237,7.121,8.306,14.346,12.439,21.535
	C263.947,383.545,264.416,384.336,264.881,385.18z M341.445,303.107c-0.377-0.061-0.543-0.128-0.668-0.107
	c-0.623,0.107-1.23,0.241-1.861,0.43c-6.879,1.822-13.512,4.329-19.914,7.479c-1.582,0.74-2.578,1.792-3.295,3.436
	c-6.584,15.286-13.256,30.557-19.91,45.822c-0.326,0.756-0.623,1.572-0.943,2.339c0.123,0.107,0.234,0.225,0.352,0.347
	c12.818-21.178,30.672-35.028,55.967-38.373C347.861,317.147,344.627,310.077,341.445,303.107z M390.992,163.747
	c-9.688-0.036-17.545,7.704-17.627,17.344c-0.061,9.787,7.828,17.772,17.533,17.772c9.57-0.021,17.551-7.985,17.576-17.533
	C408.5,171.707,400.637,163.793,390.992,163.747z M137.549,181.224c-0.013,9.695,7.776,17.573,17.407,17.64
	c9.657,0.041,17.767-8.046,17.724-17.655c-0.092-9.639-7.979-17.461-17.624-17.461C145.351,163.747,137.575,171.543,137.549,181.224
	z M484.25,223.018c-9.646-0.005-17.514,7.756-17.588,17.426c-0.1,9.68,7.893,17.699,17.609,17.67
	c9.604-0.016,17.492-7.96,17.471-17.579C501.732,230.885,493.906,223.053,484.25,223.018z M62.537,223.018
	c-9.675-0.047-17.543,7.699-17.619,17.385c-0.08,9.629,7.722,17.618,17.297,17.711c9.757,0.106,17.747-7.786,17.793-17.533
	C80.025,230.967,72.181,223.068,62.537,223.018z M126.649,348.322c10.19-10.543,21.936-17.717,35.887-21.847
	c-5.802-6.448-11.37-12.661-16.938-18.84c-8.598,3.528-16.381,7.955-23.552,13.489C123.57,330.142,125.066,338.979,126.649,348.322z
	 M420.426,346.611c0.223-0.535,0.34-0.744,0.385-0.938c1.26-8.052,2.498-16.077,3.797-24.108c0.217-1.343-0.156-2.165-1.285-2.931
	c-6.012-4.161-12.336-7.693-19.061-10.533c-0.867-0.362-1.732-0.663-2.693-1.031c-5.604,6.311-11.127,12.52-16.895,19.014
	C398.582,329.882,410.299,336.717,420.426,346.611z"/>
<g>
	<path d="M19.752,113.152l0.86,0.868c-0.582,2.797-0.549,5.105,0.1,6.918s2.343,4.089,5.09,6.852l11.457,11.513l0.373-19.554
		l14.191,0.725l-1.003,14.495c3.002-0.505,5.662-0.459,7.993,0.123c2.333,0.587,5.141,2.048,8.439,4.366
		c3.291,2.323,5.299,3.559,6.017,3.706c0.719,0.144,1.202,0.092,1.45-0.147c0.258-0.266,0.543-1.445,0.839-3.549l1.683,0.383
		l-2.17,13.448c-1.838-0.036-3.498-0.362-4.98-0.96c-1.486-0.607-3.334-1.792-5.549-3.574l-1.974,16.96
		c-2.642,0.051-4.96,0.327-6.954,0.837c-1.991,0.505-4.217,1.389-6.686,2.639l-0.664-0.668c0.334-1.705,0.278-3.073-0.166-4.105
		c-0.452-1.036-2.173-3.053-5.154-6.044l-24.096-24.231c-1.899-1.915-3.313-3.155-4.243-3.738c-1.355-0.868-2.567-1.368-3.655-1.506
		c-1.09-0.133-2.42,0.077-3.998,0.628l-0.495-1.435c1.838-0.847,3.306-1.414,4.4-1.68c1.088-0.265,2.609-0.439,4.547-0.511
		c0.074-2.818,0.444-5.187,1.113-7.117C17.187,116.869,18.261,114.99,19.752,113.152z M39.227,129.137l-0.222,11.917l8.807,8.863
		l1.677-20.346L39.227,129.137z M49.545,151.658l5.742,5.774l6.655-1.169l0.891-8.868c-4.294-3.171-8.555-4.207-12.805-3.13
		L49.545,151.658z"/>
	<path d="M62.648,77.628l4.769-3.594l0.939,12.023l-1.501,1.139L62.648,77.628z M69.516,92.623l10.849,0.506l-0.796,5.121
		l15.426,20.438c1.626,2.149,2.872,3.42,3.725,3.798c0.853,0.382,1.473,0.418,1.856,0.127c0.273-0.199,0.478-0.454,0.604-0.75
		c0.187-0.414,0.465-1.41,0.838-2.987l1.799,0.465l-3.125,12.625c-3.091,0.092-5.407-0.281-6.936-1.103
		c-1.531-0.832-3.494-2.818-5.876-5.979l-15.829-20.968l-4.986-0.746L69.516,92.623z"/>
	<path d="M122.184,59.35l9.012,3.17l1.937-6.075l1.787,0.485c-0.996,2.823-1.458,4.804-1.378,5.948
		c0.099,1.521,0.722,3.35,1.881,5.483l10.658,19.753c0.991,1.828,2.012,3.028,3.076,3.604c0.674,0.388,1.23,0.459,1.674,0.225
		c0.391-0.22,1.016-1.251,1.875-3.104l1.708,0.74l-4.947,12.085c-3.237-0.479-5.537-1.209-6.906-2.196
		c-1.373-0.975-2.856-2.951-4.454-5.912l-12.24-22.673l-5.749-1.889l-4.008,9.491l12.41,22.984l4.702,1.287l-4.102,9.889
		l-10.558-1.976l1.509-4.646l-11.414-21.137c-1.621-2.997-3.02-4.865-4.194-5.585c-0.804-0.495-1.473-0.597-1.999-0.316
		c-0.557,0.307-1.095,1.297-1.622,2.966l-1.712-0.74l4.868-12.044c3.42,0.505,5.723,1.118,6.897,1.843
		c1.182,0.725,2.277,2.027,3.29,3.901l0.804,1.496L122.184,59.35z"/>
	<path d="M174.709,38.27l16.024,2.343l7.107-6.78l3.068,10.15l-8.593,0.868l6.185,20.458c0.996,3.314,1.869,5.488,2.617,6.541
		c0.973,1.378,2.576,2.829,4.807,4.354c3.62,2.543,5.649,4.534,6.088,5.984c0.431,1.435,0.166,3.022-0.804,4.763
		c-0.973,1.736-3.998,4.881-9.093,9.44c-2.233-0.112-4.319-0.072-6.254,0.143c-1.943,0.209-3.737,0.562-5.397,1.062
		c-3.964,1.2-8.337,3.293-13.113,6.28l-1.095-1.343l6.897-15.673l-12.973-4.427l-9.866-32.624
		C165.89,46.739,170.689,42.895,174.709,38.27z M183.098,47.541l-13.583-0.51l8.919,29.525l8.123,2.813l3.607-8.435L183.098,47.541z
		 M182.215,93.501c3.717-1.813,6.772-3.083,9.18-3.813c2.165-0.648,4.436-1.027,6.815-1.118c2.382-0.102,4.876,0.102,7.488,0.587
		l1.496-1.73c-5.203-2.548-8.876-4.784-11.031-6.689c-2.151-1.904-3.839-4.176-5.059-6.816L182.215,93.501z"/>
	<path d="M265.061,7.167l0.029,1.23c-2.35,1.619-3.915,3.308-4.688,5.075c-0.774,1.756-1.118,4.58-1.032,8.465l0.37,16.245
		l13.739-13.922l9.793,10.298l-10.715,9.818c2.518,1.705,4.424,3.568,5.711,5.605c1.287,2.027,2.32,5.024,3.111,8.97
		c0.785,3.957,1.393,6.229,1.814,6.826c0.418,0.602,0.795,0.899,1.148,0.894c0.371-0.015,1.393-0.674,3.057-1.991l0.953,1.435
		l-10.832,8.25c-1.313-1.287-2.297-2.66-2.959-4.12c-0.66-1.46-1.182-3.599-1.559-6.423l-13.114,10.952
		c-1.948-1.787-3.824-3.186-5.616-4.187c-1.795-1-4.016-1.899-6.663-2.69l-0.026-0.95c1.422-1,2.326-2.032,2.708-3.088
		c0.386-1.062,0.526-3.707,0.434-7.935l-0.778-34.161c-0.064-2.695-0.23-4.575-0.508-5.626c-0.378-1.567-0.917-2.767-1.608-3.609
		c-0.7-0.847-1.808-1.613-3.329-2.308l0.631-1.374c1.912,0.644,3.359,1.251,4.337,1.808c0.985,0.562,2.195,1.486,3.65,2.767
		c1.991-1.991,3.898-3.457,5.703-4.39C260.644,8.096,262.714,7.473,265.061,7.167z M268.172,32.168l-8.375,8.485l0.283,12.494
		l15.229-13.596L268.172,32.168z M260.136,55.598l0.187,8.143l5.629,3.743l6.754-5.826c-0.926-5.249-3.303-8.945-7.119-11.084
		L260.136,55.598z"/>
	<path d="M333.076,28.472l5.971,9.389l-7.889,5.366l-4.93-8.24l-5.18,3.599l-3.529,27.172l4.824,4.518l5.303-3.155l0.879,1.634
		l-13.223,8.011c-2.25-2.599-4.174-4.508-5.771-5.734c-1.596-1.22-3.377-2.241-5.355-3.068l0.135-1.031
		c1.496-0.781,2.518-1.639,3.061-2.563c0.553-0.929,1.004-2.777,1.365-5.549l2.479-19.044c0.309-2.394,0.254-4.028-0.18-4.891
		c-0.426-0.863-0.965-1.333-1.6-1.415c-0.709-0.097-1.748,0.403-3.125,1.49l-0.965-1.505l10.83-7.189
		c2.395,2.375,3.973,4.37,4.752,5.989c0.5,1.015,0.643,2.348,0.434,3.997L333.076,28.472z"/>
	<path d="M390.512,50.518l-10.588,33.584c-5.072,0.408-8.797,0.878-11.17,1.414c-1.809,0.388-3.613,1.006-5.426,1.848
		c-3.52-4.002-6.539-6.964-9.064-8.878c-1.912-1.465-4.213-2.676-6.902-3.661l-0.166-1.042c1.439-0.597,2.43-1.235,2.975-1.925
		c0.736-0.883,1.49-2.542,2.26-4.957l7.766-24.655c6.064-0.102,11.563-1.195,16.512-3.288
		C380.074,43.114,384.674,46.969,390.512,50.518z M360.418,73.166l10.205,8.5l8.986-28.519c-3.137-2.875-5.383-4.83-6.736-5.856
		c-0.951-0.73-2.154-1.48-3.594-2.236L360.418,73.166z"/>
	<path d="M444.328,70.889l1.195,1.378c-2.734,1.532-4.627,2.818-5.678,3.839c-1.061,1.021-2.143,2.579-3.264,4.688l-9.383,17.731
		c-1.557,2.936-2.318,4.886-2.295,5.841c0.031,0.954,0.334,1.587,0.916,1.894c0.305,0.158,0.656,0.25,1.068,0.26
		c0.273-0.021,1.115-0.184,2.539-0.48l0.334,1.833l-12.895,2.971c-1.266-2.798-1.908-5.044-1.936-6.754
		c-0.025-1.695,0.545-3.752,1.709-6.147l-17.914,3.298c-2.699-6.402-3.045-11.503-1.049-15.281c1.338-2.532,3.113-4.636,5.314-6.305
		c2.914-2.196,7.064-4.355,12.465-6.474l0.662-13.351l1.152-0.766c1.033,0.653,1.813,1.123,2.338,1.394
		c3.266,1.735,6.828,1.97,10.684,0.709c1.398,2.247,3.104,4.365,5.121,6.346c2.01,1.976,3.656,3.303,4.932,3.982
		c0.582,0.312,1.076,0.439,1.49,0.393C442.25,71.844,443.078,71.517,444.328,70.889z M423.143,85.664l-7.566-10.058
		c-3.352,2.573-5.699,5.126-7.053,7.679c-2.383,4.503-2.309,9.292,0.229,14.372l8.963-1.751L423.143,85.664z M429.705,73.272
		l-11.92-11.911l-0.613,13.407l6.891,9.154L429.705,73.272z"/>
	<path d="M477.854,91.234l5.662,12.886l-8.387,2.905l-4.236-9.751l-17.873,24.139l4.986,8.848l6.082,0.062l-0.797,1.914
		l-14.465-0.041c-1.41-3.156-2.734-5.688-3.973-7.597c-1.236-1.91-2.926-4.033-5.059-6.352l0.668-0.913
		c1.336,0.05,2.395-0.179,3.199-0.68c1.131-0.684,2.473-2.072,4.02-4.171l15.941-21.525
		C467.83,91.847,472.576,91.944,477.854,91.234z"/>
	<path d="M527.74,111.472l-0.461,1.139c-2.613-0.546-4.789-0.525-6.52,0.066c-1.725,0.587-3.834,2.154-6.316,4.682l-10.75,10.957
		l18.508,1.935c0.811,3.61,0.893,6.402,0.248,8.388c-0.637,2.002-2.531,4.6-5.676,7.801l-14.949,15.23
		c-2.859,2.92-5.248,4.753-7.178,5.509c-3.115,1.246-6.924,1.563-11.412,0.945c-5.914-0.792-12.416-2.834-19.506-6.137l0.787-1.736
		c6.012,2.431,10.57,3.737,13.682,3.926c3.111,0.194,5.727-0.275,7.846-1.404c1.588-0.857,4.926-3.88,10.002-9.052l13.82-14.086
		c1.537-1.567,2.445-2.808,2.73-3.717c0.338-1.292,0.275-2.957-0.188-5.003l-10.309-0.976l-18.35,18.707l0.021,4.744l-10.633-0.96
		l-1.262-10.707l5.246-0.041l29.98-30.552c2.717-2.783,4.34-4.917,4.859-6.428c0.527-1.506,0.471-3.385-0.162-5.627l1.193-0.484
		c0.857,1.496,1.439,2.808,1.746,3.92c0.307,1.113,0.543,2.763,0.684,4.932c2.65,0.041,4.896,0.383,6.746,1.006
		C524.021,109.083,525.875,110.094,527.74,111.472z"/>
</g>
<g>
	<path d="M52.775,531.977l0.178,0.658c-1.312,0.781-2.17,1.547-2.586,2.303c-0.414,0.755-0.623,1.991-0.623,3.701v8.955l8.089-6.264
		c1.504,1.03,2.52,2.047,3.045,3.037c0.523,1.001,0.784,2.358,0.784,4.094v15.358c-2.078,0.817-3.798,1.623-5.172,2.42
		c-1.044,0.634-2.04,1.379-2.991,2.247c-1.443-1.189-2.885-2.109-4.32-2.747c-1.442-0.648-3.569-1.287-6.389-1.92v-0.454
		c0.73-0.511,1.187-1.103,1.374-1.782c0.291-1.011,0.431-3.328,0.431-6.969v-14.761c0-1.925-0.191-3.313-0.586-4.166
		c-0.388-0.863-1.126-1.664-2.214-2.414l0.457-0.639c1.292,0.562,2.183,0.99,2.66,1.286c0.475,0.297,0.934,0.689,1.378,1.164
		c1.751-1.261,2.994-2.052,3.724-2.39C50.753,532.369,51.667,532.13,52.775,531.977z M49.745,561.477l6.65,2.628v-14.347
		c0-1.321-0.125-2.229-0.365-2.73c-0.243-0.506-0.83-1.066-1.751-1.695l-4.533,3.481V561.477z"/>
	<path d="M82.195,531.977v0.658c-1.34,0.699-2.287,1.552-2.838,2.563c-0.552,1.005-0.83,2.543-0.83,4.595v22.652l2.907,2.165
		l1.121-0.919l0.639,0.919l-5.11,3.876c-1.542-1.343-2.699-2.236-3.459-2.676c-0.761-0.443-1.769-0.837-3.025-1.2v-0.557
		c0.478-0.29,0.843-0.659,1.108-1.098c0.266-0.438,0.444-0.959,0.551-1.557c0.031-0.205,0.056-1.22,0.074-3.053V540.15
		c0-1.542-0.063-2.62-0.181-3.217c-0.118-0.603-0.357-1.185-0.709-1.735c-0.36-0.552-0.96-1.17-1.808-1.844l0.403-0.516
		c1.552,0.439,2.938,1.343,4.168,2.706c1.269-1.342,2.417-2.267,3.447-2.763C79.678,532.303,80.86,532.032,82.195,531.977z"/>
	<path d="M109.224,542.423l0.916,0.352c-0.916,1.43-1.499,2.518-1.738,3.272c-0.248,0.761-0.373,1.781-0.373,3.068v10.859
		c0,1.797,0.125,2.931,0.382,3.38c0.255,0.45,0.56,0.669,0.917,0.669c0.186,0,0.377-0.046,0.577-0.143
		c0.123-0.076,0.488-0.368,1.093-0.868l0.621,0.792l-5.415,4.682c-1.313-1.021-2.191-1.931-2.629-2.742
		c-0.444-0.802-0.692-1.935-0.741-3.375l-7.734,6.117c-2.913-2.385-4.373-4.728-4.373-7.046c0-1.543,0.316-2.998,0.947-4.36
		c0.835-1.782,2.277-3.87,4.325-6.249l-3.069-6.551l0.358-0.664c0.656,0.051,1.151,0.082,1.473,0.082
		c2.004,0,3.76-0.791,5.289-2.368c1.238,0.714,2.585,1.296,4.051,1.735c1.468,0.434,2.594,0.659,3.373,0.659
		c0.352,0,0.625-0.072,0.809-0.194C108.468,543.407,108.785,543.034,109.224,542.423z M102.834,547.268l-8.717-2.681l3.099,6.57
		l5.618,2.63V547.268z M102.834,554.859l-6.167-2.905c-0.955,2.078-1.43,3.899-1.43,5.468c0,2.758,1.248,5.023,3.748,6.812
		l3.849-3.104V554.859z"/>
	<path d="M127.905,541.33l6.614,3.777l-2.716,3.967l-4.973-2.884v16.255l5.011,2.241l2.665-1.925l0.266,1.083l-6.303,4.642
		c-1.629-0.919-3.021-1.594-4.171-2.023c-1.156-0.434-2.573-0.815-4.248-1.137v-0.613c0.592-0.408,0.983-0.848,1.169-1.328
		c0.271-0.658,0.409-1.694,0.409-3.104v-14.5C123.749,544.813,125.84,543.326,127.905,541.33z"/>
	<path d="M153.318,531.977v0.658c-1.292,0.853-2.157,1.751-2.596,2.686c-0.442,0.949-0.664,2.477-0.664,4.579v8.787l7.604-7.356
		l5.172,5.697l-5.915,5.172c1.335,0.95,2.344,1.98,3.018,3.104c0.668,1.108,1.189,2.742,1.564,4.892
		c0.378,2.139,0.682,3.385,0.898,3.711c0.222,0.338,0.427,0.496,0.613,0.496c0.205,0,0.766-0.348,1.683-1.036l0.495,0.791
		l-5.963,4.33c-0.694-0.715-1.207-1.466-1.546-2.272c-0.34-0.791-0.595-1.961-0.769-3.487l-7.225,5.76
		c-1.034-0.99-2.029-1.772-2.989-2.333c-0.958-0.563-2.147-1.078-3.574-1.543v-0.506c0.779-0.525,1.286-1.076,1.509-1.638
		c0.217-0.577,0.327-1.997,0.327-4.294v-18.492c0-1.45-0.066-2.472-0.204-3.049c-0.184-0.847-0.462-1.501-0.827-1.976
		c-0.365-0.46-0.955-0.889-1.769-1.287l0.353-0.734c1.033,0.377,1.805,0.725,2.33,1.036c0.521,0.307,1.169,0.827,1.943,1.537
		c1.103-1.053,2.147-1.822,3.137-2.297C150.913,532.42,152.044,532.108,153.318,531.977z M154.691,545.541l-4.633,4.483v6.77
		l8.409-7.178L154.691,545.541z M150.058,558.116v4.406l3.002,2.088l3.722-3.058c-0.439-2.854-1.674-4.877-3.717-6.092
		L150.058,558.116z"/>
	<path d="M178.59,556.324l-3.881-3.885l3.891-3.891l3.885,3.891L178.59,556.324z"/>
	<path d="M203.117,531.977l0.178,0.658c-1.309,0.781-2.169,1.547-2.583,2.303c-0.416,0.755-0.625,1.991-0.625,3.701v8.955
		l8.09-6.264c1.503,1.03,2.52,2.047,3.045,3.037c0.525,1.001,0.784,2.358,0.784,4.094v15.358c-2.078,0.817-3.804,1.623-5.169,2.42
		c-1.047,0.634-2.05,1.379-2.995,2.247c-1.442-1.189-2.885-2.109-4.324-2.747c-1.435-0.648-3.563-1.287-6.392-1.92v-0.454
		c0.737-0.511,1.194-1.103,1.381-1.782c0.291-1.011,0.431-3.328,0.431-6.969v-14.761c0-1.925-0.191-3.313-0.587-4.166
		c-0.388-0.863-1.126-1.664-2.214-2.414l0.458-0.639c1.292,0.562,2.185,0.99,2.66,1.286c0.478,0.297,0.935,0.689,1.378,1.164
		c1.751-1.261,2.995-2.052,3.725-2.39C201.095,532.369,202.009,532.13,203.117,531.977z M200.087,561.477l6.65,2.628v-14.347
		c0-1.321-0.125-2.229-0.365-2.73c-0.248-0.506-0.83-1.066-1.751-1.695l-4.534,3.481V561.477z"/>
	<path d="M232.541,531.977v0.658c-1.343,0.699-2.29,1.552-2.841,2.563c-0.549,1.005-0.83,2.543-0.83,4.595v22.652l2.907,2.165
		l1.121-0.919l0.638,0.919l-5.11,3.876c-1.54-1.343-2.698-2.236-3.459-2.676c-0.761-0.443-1.774-0.837-3.025-1.2v-0.557
		c0.478-0.29,0.843-0.659,1.108-1.098c0.265-0.438,0.446-0.959,0.551-1.557c0.03-0.205,0.056-1.22,0.074-3.053V540.15
		c0-1.542-0.062-2.62-0.179-3.217c-0.12-0.603-0.36-1.185-0.712-1.735c-0.36-0.552-0.96-1.17-1.813-1.844l0.409-0.516
		c1.552,0.439,2.938,1.343,4.168,2.706c1.269-1.342,2.42-2.267,3.446-2.763C230.016,532.303,231.203,532.032,232.541,531.977z"/>
	<path d="M259.871,545.047v19.058c-2.551,1.042-4.394,1.889-5.532,2.543c-0.871,0.496-1.701,1.107-2.504,1.839
		c-2.464-1.496-4.504-2.532-6.125-3.104c-1.22-0.449-2.611-0.7-4.159-0.771l-0.253-0.506c0.648-0.545,1.052-1.041,1.226-1.484
		c0.235-0.577,0.352-1.548,0.352-2.927v-13.988c3.117-1.036,5.777-2.496,7.992-4.375
		C253.281,542.922,256.289,544.163,259.871,545.047z M248.03,561.629l6.643,2.731v-16.18c-2.091-0.985-3.563-1.618-4.429-1.93
		c-0.613-0.229-1.355-0.413-2.213-0.566V561.629z"/>
	<path d="M288.482,545.047v19.058c-2.557,1.042-4.398,1.889-5.537,2.543c-0.875,0.496-1.703,1.107-2.508,1.839
		c-2.461-1.496-4.502-2.532-6.115-3.104c-1.227-0.449-2.611-0.7-4.16-0.771l-0.26-0.506c0.65-0.545,1.061-1.041,1.227-1.484
		c0.234-0.577,0.359-1.548,0.359-2.927v-13.988c3.111-1.036,5.771-2.496,7.984-4.375
		C281.893,542.922,284.893,544.163,288.482,545.047z M276.635,561.629l6.648,2.731v-16.18c-2.09-0.985-3.568-1.618-4.436-1.93
		c-0.611-0.229-1.348-0.413-2.213-0.566V561.629z"/>
	<path d="M298.131,532.635l17.328,11.896c0.27-0.623,0.57-1.098,0.904-1.419c0.326-0.322,0.834-0.633,1.514-0.919v1.041
		c-0.34,0.465-0.563,0.879-0.662,1.256c-0.104,0.368-0.154,1.134-0.154,2.288v17.149c-2.152,0.813-3.756,1.521-4.809,2.119
		c-1.051,0.606-2.188,1.419-3.406,2.44c-2.004-1.308-3.787-2.258-5.334-2.86c-1.547-0.592-3.209-0.995-4.998-1.22v-0.479
		c0.613-0.532,1.004-1.058,1.182-1.599c0.18-0.53,0.266-1.638,0.266-3.318v-13.351c2.334-0.648,3.98-1.374,4.945-2.19l-6.775-4.615
		V532.635z M311.865,548.217l-5.264-3.584c-0.465,0.367-0.943,0.699-1.438,0.99v15.756l6.701,2.981V548.217z"/>
	<path d="M332.754,556.324l-3.877-3.885l3.885-3.891l3.885,3.891L332.754,556.324z"/>
	<path d="M357.283,531.977l0.18,0.658c-1.313,0.781-2.172,1.547-2.586,2.303c-0.422,0.755-0.625,1.991-0.625,3.701v8.955
		l8.086-6.264c1.508,1.03,2.521,2.047,3.047,3.037c0.527,1.001,0.787,2.358,0.787,4.094v15.358c-2.078,0.817-3.803,1.623-5.172,2.42
		c-1.051,0.634-2.047,1.379-2.994,2.247c-1.439-1.189-2.887-2.109-4.32-2.747c-1.438-0.648-3.564-1.287-6.393-1.92v-0.454
		c0.729-0.511,1.193-1.103,1.381-1.782c0.283-1.011,0.426-3.328,0.426-6.969v-14.761c0-1.925-0.191-3.313-0.582-4.166
		c-0.396-0.863-1.131-1.664-2.215-2.414l0.457-0.639c1.293,0.562,2.18,0.99,2.654,1.286c0.482,0.297,0.941,0.689,1.381,1.164
		c1.756-1.261,2.998-2.052,3.729-2.39C355.254,532.369,356.176,532.13,357.283,531.977z M354.252,561.477l6.645,2.628v-14.347
		c0-1.321-0.119-2.229-0.365-2.73c-0.24-0.506-0.83-1.066-1.752-1.695l-4.527,3.481V561.477z"/>
	<path d="M389.877,541.33l3.863,4.619l-3.863,3.427l-3.221-4.084l-2.525,2.302v14.827l2.902,2.093l2.629-2.068l0.58,0.817
		l-6.531,5.224c-1.393-1.247-2.553-2.134-3.496-2.676c-0.939-0.541-1.973-0.966-3.092-1.271v-0.563
		c0.748-0.525,1.236-1.063,1.465-1.598c0.23-0.531,0.34-1.553,0.34-3.063v-10.4c0-1.302-0.143-2.181-0.43-2.614
		c-0.291-0.434-0.613-0.643-0.961-0.643c-0.383,0-0.908,0.332-1.572,1.021l-0.623-0.745l5.313-4.604
		c1.447,1.098,2.434,2.057,2.963,2.874c0.34,0.505,0.514,1.215,0.514,2.113L389.877,541.33z"/>
	<path d="M420.049,545.047v19.058c-2.549,1.042-4.398,1.889-5.537,2.543c-0.865,0.496-1.701,1.107-2.5,1.839
		c-2.469-1.496-4.502-2.532-6.123-3.104c-1.225-0.449-2.611-0.7-4.156-0.771l-0.256-0.506c0.645-0.545,1.053-1.041,1.221-1.484
		c0.24-0.577,0.357-1.548,0.357-2.927v-13.988c3.119-1.036,5.779-2.496,7.988-4.375
		C413.461,542.922,416.461,544.163,420.049,545.047z M408.201,561.629l6.65,2.731v-16.18c-2.092-0.985-3.563-1.618-4.436-1.93
		c-0.605-0.229-1.348-0.413-2.215-0.566V561.629z"/>
	<path d="M476.955,542.423l0.922,0.352c-0.922,1.43-1.504,2.518-1.744,3.272c-0.248,0.761-0.371,1.781-0.371,3.068v10.859
		c0,1.797,0.123,2.931,0.385,3.38c0.252,0.45,0.555,0.669,0.912,0.669c0.188,0,0.379-0.046,0.582-0.143
		c0.119-0.076,0.482-0.368,1.092-0.868l0.623,0.792l-5.412,4.682c-1.318-1.021-2.195-1.931-2.635-2.742
		c-0.447-0.802-0.695-1.935-0.744-3.375l-7.732,6.117c-2.914-2.385-4.375-4.728-4.375-7.046c0-1.543,0.316-2.998,0.947-4.36
		c0.834-1.782,2.277-3.87,4.324-6.249l-3.068-6.551l0.359-0.664c0.662,0.051,1.148,0.082,1.473,0.082
		c2.004,0,3.762-0.791,5.287-2.368c1.238,0.714,2.594,1.296,4.055,1.735c1.465,0.434,2.592,0.659,3.369,0.659
		c0.359,0,0.627-0.072,0.818-0.194C476.201,543.407,476.516,543.034,476.955,542.423z M470.564,547.268l-8.717-2.681l3.107,6.57
		l5.609,2.63V547.268z M470.564,554.859l-6.166-2.905c-0.953,2.078-1.432,3.899-1.432,5.468c0,2.758,1.252,5.023,3.752,6.812
		l3.846-3.104V554.859z"/>
	<path d="M500.619,550.774l5.922,3.089v10.723c-1.439,0.137-2.73,0.484-3.891,1.04c-1.152,0.562-2.467,1.518-3.926,2.86
		c-1.256-0.751-2.354-1.262-3.283-1.563c-0.924-0.28-1.898-0.429-2.939-0.429c-1.594,0-3.023,0.486-4.264,1.46
		c-0.455,0.353-0.781,0.532-0.996,0.532c-0.184,0-0.367-0.092-0.557-0.281s-0.281-0.378-0.281-0.563
		c0-0.204,0.174-0.475,0.531-0.815c0.205-0.199,0.551-0.593,1.043-1.17l2.316-2.879l3.289-4.365l-5.576-2.998v-9.507
		c1.756-0.54,3.135-1.148,4.127-1.822c0.99-0.668,1.949-1.587,2.869-2.756c2.174,0.913,3.926,1.556,5.248,1.935
		c0.953,0.256,1.863,0.378,2.727,0.378c0.953,0,1.695-0.204,2.225-0.618c0.531-0.424,0.797-0.863,0.797-1.317
		c0-0.306-0.174-0.612-0.51-0.914c-0.658-0.597-0.992-1.18-0.992-1.735c0-0.525,0.145-0.944,0.43-1.261
		c0.285-0.313,0.613-0.471,0.971-0.471c0.469,0,0.908,0.215,1.287,0.649c0.377,0.434,0.57,1.005,0.57,1.72
		c0,0.73-0.152,1.44-0.465,2.14c-0.301,0.7-0.893,1.598-1.76,2.695L500.619,550.774z M497.545,554.859l-6.146,8.219
		c0.746-0.249,1.439-0.438,2.082-0.556c0.654-0.118,1.242-0.179,1.768-0.179c1.949,0,3.982,0.648,6.086,1.936v-7.388
		L497.545,554.859z M493.154,552.531l3.492,1.813l5.555-7.393c-1.139,0.326-2.123,0.489-2.961,0.489
		c-2.084,0-4.115-0.698-6.086-2.093V552.531z"/>
	<path fill-rule="evenodd" clip-rule="evenodd" d="M432.914,540.721v0.005c0.291,0.277,0.941,0.95,1.219,1.242
		c0.775,0.816,1.576,1.611,2.305,2.469c0.207,0.242,0.244,0.665,0.275,1.013v15.827l6.949,3.028v-17.021l-2.346-2.907l4.813-4.063
		l3.813,4.625l-1.029,0.951v2.821v15.286c-1.459,0.362-2.82,0.863-4.082,1.516c-1.264,0.659-2.721,1.649-4.361,2.973
		c-1.855-1.461-3.564-2.486-5.127-3.085c-1.566-0.592-3.324-0.919-5.258-0.969v-0.628c0.648-0.398,1.082-0.858,1.309-1.369
		c0.23-0.521,0.361-1.496,0.361-2.94v-9.776c-0.002-0.808-0.01-1.616,0-2.424c0.002-0.234-0.041-0.43-0.225-0.596
		c-0.582-0.524-1.154-1.058-1.781-1.634c-0.313,0.191-0.734,0.45-1.193,0.731c-0.193-0.271-0.375-0.526-0.592-0.83L432.914,540.721z
		"/>
</g>
</svg>
